# xmcd
#
# Track frame offsets:
#	150
#	18863
#	39470
#	59369
#	76865
#	95387
#
# Disc length: 1569 seconds
# Revision: 0
# Processed by: cddbd v1.5.2PL0 Copyright (c) Steve Scherf et al.
# Submitted via: dBpowerAMP V12.0
#
DISCID=3a061f06
DTITLE=John Called Mark - Blues Sampler Volume I
DYEAR=2001
DGENRE=Blues
TTITLE0=Back To Memphios
TTITLE1=Preacher Man
TTITLE2=Sahdows of the Road
TTITLE3=Start Livin'
TTITLE4=Prodigal One
TTITLE5=Master of the Sea
EXTD=
EXTT0=
EXTT1=
EXTT2=
EXTT3=
EXTT4=
EXTT5=
PLAYORDER=
